<svg width="437" height="299" viewBox="0 0 437 299" fill="none" xmlns="http://www.w3.org/2000/svg">
<g clip-path="url(#clip0)">
<path opacity="0.1" d="M357.862 164.084C345.967 179.227 350.588 201.35 358.147 219.067C360.678 224.999 363.54 231.275 362.472 237.636C361.167 245.415 354.233 251.104 346.953 254.118C333.683 259.614 317.802 258.304 305.608 250.708C295.071 244.144 287.524 233.47 276.806 227.204C258.871 216.719 236.041 220.679 216.565 227.901C202.786 233.011 187.722 239.656 174.03 234.316C164.396 230.559 157.737 221.413 154.109 211.719C152.357 207.039 151.085 201.972 147.74 198.262C145.751 196.057 143.156 194.491 140.497 193.171C116.218 181.118 85.5541 187.573 61.9722 174.203C46.0458 165.174 35.8498 148.142 31.3353 130.383C26.8208 112.623 27.3467 94.0008 28.4929 75.7108C29.3074 62.7129 30.7689 48.8364 39.0631 38.8047C47.8373 28.1925 62.8956 24.2465 76.5063 26.2635C90.117 28.2805 102.454 35.4696 113.307 43.937C126.872 54.5195 139.452 67.6972 156.106 71.984C167.448 74.9033 179.379 73.3064 191.076 72.7534C210.632 71.829 230.195 73.8848 249.643 76.136C268.26 78.2911 287.013 80.663 304.749 86.7274C317.3 91.019 327.363 98.8092 339.215 104.252C346.94 107.799 355.364 108.779 362.679 113.297C371.689 118.863 379.95 128.545 377.641 139.873C375.446 150.644 364.176 156.046 357.862 164.084Z" fill="#3D9E67"/>
<path opacity="0.1" d="M8.86835 201.318C8.86835 201.318 77.2718 183.352 165.86 229.014C254.448 274.677 351.259 193.084 349.39 180.732C347.521 168.381 413.682 180.732 413.682 180.732V291.145H8.86835V201.318Z" fill="#3D9E67"/>
<path d="M56.4819 37.23C66.7492 37.23 75.0725 28.8958 75.0725 18.615C75.0725 8.33421 66.7492 0 56.4819 0C46.2146 0 37.8913 8.33421 37.8913 18.615C37.8913 28.8958 46.2146 37.23 56.4819 37.23Z" fill="#FFDF9C"/>
<path d="M186.88 95.1169L183.852 113.977C183.852 113.977 180.067 126.424 180.446 132.459C180.824 138.494 180.446 146.792 180.446 146.792C180.446 146.792 171.362 163.389 178.932 170.178C186.502 176.967 188.773 148.678 188.773 148.678C188.773 148.678 187.637 136.608 190.287 130.196C192.936 123.783 193.315 109.827 193.315 109.827L186.88 95.1169Z" fill="#FFCDD3"/>
<path opacity="0.05" d="M186.88 95.1169L183.852 113.977C183.852 113.977 180.067 126.424 180.446 132.459C180.824 138.494 180.446 146.792 180.446 146.792C180.446 146.792 171.362 163.389 178.932 170.178C186.502 176.967 188.773 148.678 188.773 148.678C188.773 148.678 187.637 136.608 190.287 130.196C192.936 123.783 193.315 109.827 193.315 109.827L186.88 95.1169Z" fill="black"/>
<path d="M231.227 159.97L236.463 179.608L241.384 202.616C241.384 202.616 244.033 207.52 241.384 217.704L250.089 245.993C250.089 245.993 255.009 264.099 258.037 264.476C261.065 264.853 255.009 278.809 255.009 278.809L246.683 273.906C246.683 273.906 244.412 262.59 241.384 259.949C238.356 257.309 228.515 230.906 228.515 230.906L225.487 212.423C225.487 212.423 216.024 187.152 207.698 181.116C199.371 175.081 196.721 165.274 196.721 165.274L231.227 159.97Z" fill="#FFCDD3"/>
<path opacity="0.05" d="M196.721 165.275C196.721 165.275 199.371 175.081 207.698 181.117C216.024 187.152 225.487 212.423 225.487 212.423L228.515 230.906C228.515 230.906 238.356 257.309 241.384 259.949C243.605 261.888 245.422 268.5 246.228 271.88C246.524 273.106 246.683 273.906 246.683 273.906L255.009 278.809C255.009 278.809 261.065 264.853 258.037 264.476C257.568 264.419 257.053 263.933 256.516 263.156C253.601 258.924 250.089 245.993 250.089 245.993L241.384 217.704C244.033 207.52 241.384 202.616 241.384 202.616L236.463 179.608L231.229 159.971L196.721 165.275Z" fill="black"/>
<path d="M148.274 263.344L151.302 270.511L164.928 269.002C164.508 267.055 164.275 265.072 164.231 263.08C164.11 258.799 164.769 253.02 168.334 248.634C174.768 240.713 184.609 221.099 184.609 221.099C184.609 221.099 194.45 210.537 196.721 206.388L215.669 174.716L215.078 171.875L220.188 167.16H188.394L180.824 196.581L174.768 208.651C174.768 208.651 161.9 219.59 156.979 242.599C156.979 242.599 152.07 257.928 148.944 262.503C148.748 262.805 148.524 263.086 148.274 263.344Z" fill="#FFCDD3"/>
<path opacity="0.1" d="M246.228 271.88C246.524 273.106 246.683 273.905 246.683 273.905L255.009 278.809C255.009 278.809 261.065 264.853 258.037 264.476C257.568 264.419 257.053 263.933 256.516 263.156C256.123 263.39 255.816 263.746 255.641 264.169C255.467 264.593 255.434 265.061 255.547 265.505C255.666 266.069 255.867 266.612 256.145 267.116C257.28 269.002 252.36 272.02 252.36 272.02C250.702 274.143 248.011 273.023 246.228 271.88Z" fill="black"/>
<path d="M255.925 266.259C255.406 264.084 258.136 262.625 259.669 264.258C260.06 264.667 260.401 265.12 260.687 265.607C262.201 268.247 273.556 270.511 275.827 269.756C278.098 269.002 286.046 268.247 284.154 273.905C282.261 279.563 248.197 287.861 248.197 287.861C248.197 287.861 244.412 282.581 244.79 278.809C245.01 276.299 245.01 273.775 244.79 271.265C244.79 271.265 250.089 276.169 252.739 272.774C252.739 272.774 257.659 269.756 256.524 267.87C256.246 267.366 256.044 266.823 255.925 266.259Z" fill="#DCE6F2"/>
<path opacity="0.1" d="M148.274 263.344L151.302 270.511L164.928 269.002C164.508 267.055 164.275 265.072 164.231 263.08C164.096 262.81 163.897 262.577 163.653 262.4C163.408 262.223 163.124 262.109 162.825 262.066C162.526 262.024 162.222 262.054 161.937 262.155C161.653 262.256 161.397 262.425 161.192 262.646C160.488 263.401 159.776 264.197 159.25 264.853C157.736 266.739 152.816 265.607 152.816 265.607C151.54 266.03 150.026 264.197 148.944 262.503C148.748 262.805 148.524 263.086 148.274 263.344Z" fill="black"/>
<path d="M160.812 263.401C161.038 263.156 161.326 262.976 161.645 262.88C161.964 262.784 162.303 262.775 162.627 262.855C162.951 262.935 163.247 263.1 163.485 263.334C163.723 263.568 163.894 263.861 163.98 264.183C164.669 266.865 166.179 270.331 169.47 271.642C175.147 273.905 183.095 277.677 180.446 281.072C177.796 284.467 168.713 287.484 160.764 284.844C152.816 282.203 141.461 275.791 141.461 275.791L147.138 260.704C147.138 260.704 150.166 267.116 152.437 266.361C152.437 266.361 157.358 267.493 158.872 265.607C159.399 264.95 160.109 264.157 160.812 263.401Z" fill="#DCE6F2"/>
<path d="M212.24 51.3627C212.24 51.3627 203.156 63.81 205.427 72.4854C207.698 81.1607 187.259 66.8275 187.259 66.8275C187.259 66.8275 197.857 57.3977 195.964 41.9329L212.24 51.3627Z" fill="#FFCDD3"/>
<path d="M182.338 169.424C197.478 178.476 215.646 174.704 215.646 174.704L215.267 172.064C215.532 172.09 215.797 172.117 216.055 172.139C230.525 173.414 233.814 169.046 233.814 169.046C231.55 162.706 229.775 149.263 228.67 138.871C228.511 137.377 228.367 135.948 228.235 134.609C227.936 131.58 227.712 129.03 227.569 127.306C227.444 125.79 227.379 124.915 227.379 124.915L225.865 113.599C225.865 113.599 221.702 100.02 223.594 90.9678C225.206 83.2577 219.954 80.4726 218.361 79.8161C218.111 79.7199 217.853 79.6437 217.591 79.5883C215.515 79.0979 213.203 76.9828 211.236 74.7146C208.369 71.442 204.715 68.9569 200.62 67.4952C198.716 66.8049 197.1 66.0732 197.1 66.0732C194.45 63.0556 187.259 64.9416 187.259 64.9416C178.553 70.5995 183.095 89.0818 183.095 89.0818L186.714 99.3867C188.731 105.124 191.604 110.495 194.92 115.598C200.483 124.153 192.936 135.854 192.936 135.854C181.203 145.283 182.338 169.424 182.338 169.424Z" fill="#FF8AA1"/>
<path opacity="0.05" d="M214.7 151.884L216.055 172.139C230.525 173.414 233.814 169.046 233.814 169.046C231.55 162.706 229.775 149.263 228.67 138.871C228.511 137.377 228.367 135.948 228.235 134.609L214.7 151.884Z" fill="black"/>
<path opacity="0.1" d="M190.665 98.8887C190.665 98.8887 197.478 111.713 199.749 117.371C202.02 123.029 202.02 121.143 203.156 123.029C204.291 124.915 216.403 133.213 216.403 133.213L228.67 138.871C228.151 133.998 227.777 129.792 227.569 127.306L216.024 119.634C216.024 119.634 208.076 114.731 207.698 108.318C207.319 101.906 202.399 90.2133 202.399 90.2133C202.399 90.2133 192.558 79.652 188.394 84.5555C184.231 89.4589 190.665 98.8887 190.665 98.8887Z" fill="black"/>
<path d="M202.399 88.3273C202.399 88.3273 207.319 100.02 207.698 106.433C208.076 112.845 216.024 117.748 216.024 117.748L241.005 134.345C241.005 134.345 262.579 141.511 255.388 149.809C248.197 158.108 236.842 140.757 236.842 140.757L216.403 131.327C216.403 131.327 204.291 123.029 203.156 121.143C202.02 119.257 202.02 121.143 199.749 115.485C197.478 109.827 190.665 97.0027 190.665 97.0027C190.665 97.0027 184.231 87.573 188.394 82.6695C192.558 77.766 202.399 88.3273 202.399 88.3273Z" fill="#FFCDD3"/>
<path opacity="0.1" d="M205.427 93.2309C205.427 93.2309 197.857 87.573 196.343 85.6871C195.674 84.8545 194.637 84.9776 193.687 85.3748C191.914 86.1318 189.985 86.4492 188.063 86.3C186.407 86.1586 184.799 86.2529 184.988 87.1958C185.366 89.0818 183.852 77.3889 183.852 77.3889L190.287 75.1257L198.614 79.652L205.427 93.2309Z" fill="black"/>
<path d="M205.427 92.4765C205.427 92.4765 197.857 86.8186 196.343 84.9327C195.674 84.1001 194.637 84.2232 193.687 84.6203C191.914 85.3774 189.985 85.6948 188.063 85.5456C186.407 85.4042 184.799 85.4985 184.988 86.4414C185.366 88.3274 183.852 76.6345 183.852 76.6345L190.287 74.3713L198.614 78.8976L205.427 92.4765Z" fill="#FF8AA1"/>
<path opacity="0.1" d="M223.251 93.2308C221.885 93.8281 220.395 94.0884 218.907 93.9899C217.419 93.8915 215.976 93.4371 214.7 92.665" fill="black"/>
<path opacity="0.1" d="M198.424 42.8759C198.708 40.6212 195.906 45.304 195.586 42.6873L211.861 52.1171C211.861 52.1171 210.932 53.392 209.744 55.4051C209.127 55.4752 208.507 55.5108 207.887 55.5118C202.99 55.5118 201.44 46.2571 198.424 42.8759Z" fill="black"/>
<path d="M208.265 54.7574C217.358 54.7574 224.73 47.4114 224.73 38.3496C224.73 29.2878 217.358 21.9418 208.265 21.9418C199.172 21.9418 191.801 29.2878 191.801 38.3496C191.801 47.4114 199.172 54.7574 208.265 54.7574Z" fill="#FFCDD3"/>
<path opacity="0.1" d="M215.652 38.636C215.528 39.666 215.552 40.7549 215.06 41.6693C214.371 42.9495 212.887 43.532 211.646 44.2939C206.617 47.3815 205.125 54.3284 206.727 59.9945C207.294 61.9995 208.189 64.0343 207.817 66.0843C207.179 69.6073 203.152 71.4336 199.573 71.7465C195.995 72.0593 192.249 71.4813 188.902 72.7823C183.281 74.9674 180.806 81.5371 176.028 85.2086C170.471 89.4788 162.816 89.2143 155.816 89.7085C153.228 89.8912 150.601 90.2017 148.059 89.6858C145.517 89.1698 143.008 87.6423 142.11 85.2165C140.843 81.7938 143.151 78.0825 145.831 75.5979C148.512 73.1133 151.784 71.0171 153.301 67.6971C155.341 63.2343 153.692 57.5977 156.258 53.4133C156.725 52.5643 157.459 51.8937 158.346 51.5059C159.476 51.0828 160.73 51.3751 161.937 51.4165C166.611 51.5766 170.598 47.8609 172.769 43.7325C174.94 39.6042 175.862 34.9314 177.848 30.7112C180.095 25.9353 183.839 21.7204 188.706 19.6475C191.557 18.433 194.669 17.987 197.647 17.1229C201.031 16.1407 204.261 14.6119 207.728 13.9753C211.194 13.3387 215.121 13.7589 217.655 16.2C220.04 18.4976 220.736 22.1028 223.016 24.5041C223.878 25.4117 224.985 26.1793 225.399 27.3585C226.382 30.152 221.615 30.3877 220.025 31.5061C218.843 32.3274 217.845 33.385 217.092 34.6122C216.34 35.8394 215.849 37.2095 215.652 38.636Z" fill="black"/>
<path d="M214.895 38.2588C214.771 39.2888 214.795 40.3777 214.303 41.292C213.614 42.5723 212.13 43.1548 210.889 43.9166C205.86 47.0043 204.368 53.9511 205.97 59.6173C206.537 61.6223 207.432 63.6571 207.06 65.7071C206.422 69.23 202.395 71.0564 198.816 71.3692C195.238 71.6821 191.492 71.1041 188.145 72.4051C182.524 74.5902 180.049 81.1599 175.271 84.8313C169.713 89.1016 162.059 88.8371 155.059 89.3313C152.471 89.514 149.844 89.8245 147.302 89.3086C144.76 88.7926 142.251 87.2651 141.353 84.8393C140.086 81.4166 142.394 77.7053 145.074 75.2207C147.755 72.7361 151.027 70.6399 152.544 67.3199C154.584 62.8571 152.935 57.2205 155.501 53.0361C155.968 52.1871 156.702 51.5165 157.589 51.1287C158.719 50.7056 159.973 50.9979 161.18 51.0393C165.854 51.1994 169.841 47.4837 172.012 43.3554C174.183 39.227 175.105 34.5542 177.091 30.334C179.338 25.5581 183.082 21.3432 187.949 19.2703C190.8 18.0558 193.912 17.6098 196.89 16.7457C200.274 15.7635 203.504 14.2347 206.971 13.5981C210.437 12.9615 214.364 13.3817 216.898 15.8228C219.283 18.1204 219.979 21.7256 222.259 24.1269C223.121 25.0345 224.228 25.8021 224.642 26.9813C225.625 29.7748 220.858 30.0105 219.267 31.1289C218.086 31.9502 217.088 33.0078 216.335 34.235C215.583 35.4622 215.092 36.8323 214.895 38.2588Z" fill="#3D9E67"/>
<path d="M22.5117 291.332C22.5117 291.332 10.1766 269.25 25.502 251.658C40.8273 234.067 58.7692 243.799 58.7692 243.799C58.7692 243.799 81.1966 254.278 75.9635 279.355C75.9635 279.355 72.9732 292.081 64.0023 291.332H22.5117Z" fill="#3D9E67"/>
<path opacity="0.2" d="M22.5117 291.332C22.5117 291.332 10.1766 269.25 25.502 251.658C40.8273 234.067 58.7692 243.799 58.7692 243.799C58.7692 243.799 81.1966 254.278 75.9635 279.355C75.9635 279.355 72.9732 292.081 64.0023 291.332H22.5117Z" fill="white"/>
<path d="M41.8864 291.364L55.4051 250.161" stroke="#535461" stroke-miterlimit="10"/>
<path d="M67.7402 256.524C67.7402 256.524 60.7801 253.245 53.794 255.071C53.794 255.071 50.1721 246.044 41.9487 244.547" stroke="#535461" stroke-miterlimit="10"/>
<path d="M71.1043 270.747C71.1043 270.747 59.2688 262.181 50.6087 264.78C50.6087 264.78 40.8273 253.155 34.0991 253.904" stroke="#535461" stroke-miterlimit="10"/>
<path d="M68.4878 286.092C68.4878 286.092 58.3719 278.766 45.8617 279.248C45.8617 279.248 36.3419 267.752 27.3709 267.004" stroke="#535461" stroke-miterlimit="10"/>
<path d="M47.2868 291.364C45.736 290.631 44.118 290.05 42.4553 289.63C42.4553 289.63 34.6598 279.48 19.0541 282.786" stroke="#535461" stroke-miterlimit="10"/>
<path d="M155.954 291.332C155.954 291.332 168.29 271.121 137.639 241.178C106.988 211.236 108.857 205.622 111.474 201.13C111.474 201.13 86.8035 204.125 92.0365 241.178C97.2696 278.232 119.697 291.332 119.697 291.332H155.954Z" fill="#3D9E67"/>
<path d="M138.573 291.332C138.573 291.332 129.415 264.758 115.585 248.664C101.755 232.57 104.372 205.996 111.474 201.13" stroke="#535461" stroke-width="2" stroke-miterlimit="10"/>
<path d="M357.883 51.9394C352.375 57.5366 352.013 66.1228 352.013 66.1228C352.013 66.1228 360.582 65.634 366.09 60.0368C371.598 54.4396 371.96 45.8535 371.96 45.8535C371.96 45.8535 363.392 46.3423 357.883 51.9394Z" fill="#3D9E67"/>
<path d="M30.0702 137.275C24.5619 142.872 24.1998 151.458 24.1998 151.458C24.1998 151.458 32.7684 150.97 38.2767 145.373C43.785 139.775 44.1471 131.189 44.1471 131.189C44.1471 131.189 35.5785 131.678 30.0702 137.275Z" fill="#FC6681"/>
<path d="M336.951 155.615C331.443 161.212 331.081 169.798 331.081 169.798C331.081 169.798 339.65 169.31 345.158 163.712C350.666 158.115 351.028 149.529 351.028 149.529C351.028 149.529 342.46 150.018 336.951 155.615Z" fill="#3D9E67"/>
<path d="M67.0145 149.463C59.7561 146.475 51.6817 149.388 51.6817 149.388C51.6817 149.388 55.3755 157.145 62.6339 160.133C69.8923 163.121 77.9667 160.208 77.9667 160.208C77.9667 160.208 74.2729 152.451 67.0145 149.463Z" fill="#3D9E67"/>
<path d="M158.281 138.24C154.085 131.599 145.816 129.3 145.816 129.3C145.816 129.3 144.348 137.767 148.544 144.408C152.739 151.049 161.009 153.348 161.009 153.348C161.009 153.348 162.476 144.881 158.281 138.24Z" fill="#FFD037"/>
<path d="M259.543 168.935C261.333 168.935 262.784 167.482 262.784 165.69C262.784 163.898 261.333 162.446 259.543 162.446C257.754 162.446 256.303 163.898 256.303 165.69C256.303 167.482 257.754 168.935 259.543 168.935Z" fill="#FC6681"/>
<path d="M267.104 203.544C268.894 203.544 270.345 202.092 270.345 200.3C270.345 198.508 268.894 197.055 267.104 197.055C265.315 197.055 263.864 198.508 263.864 200.3C263.864 202.092 265.315 203.544 267.104 203.544Z" fill="#FC6681"/>
<path d="M198.753 210.862C198.753 210.862 186.418 197.014 181.933 214.23C177.447 231.447 174.831 233.693 165.86 229.202C156.889 224.71 147.544 246.044 169.598 261.39C191.651 276.735 179.316 291.894 179.316 291.894H258.186C258.186 291.894 268.652 261.39 245.851 250.91C223.05 240.43 223.797 232.57 224.545 222.09C225.292 211.61 198.753 210.862 198.753 210.862Z" fill="#3D9E67"/>
<path d="M188.287 205.596C188.287 205.596 239.496 273.18 221.928 291.894" stroke="#535461" stroke-width="2" stroke-miterlimit="10"/>
<path d="M175.047 230.29C175.047 230.29 187.166 240.617 206.977 235.377C226.788 230.137 221.903 216.695 221.903 216.695" stroke="#535461" stroke-width="2" stroke-miterlimit="10"/>
<path d="M257.98 262.959C257.98 262.959 231.616 250.156 218.362 254.93C183.853 267.362 158.197 233.88 158.197 233.88" stroke="#535461" stroke-width="2" stroke-miterlimit="10"/>
<path d="M181.372 291.332C181.372 291.332 197.445 279.355 177.26 237.436C177.26 237.436 150.348 204.125 177.26 172.685C177.26 172.685 118.576 174.182 119.697 228.827C120.818 283.472 149.039 291.332 149.039 291.332H181.372Z" fill="#3D9E67"/>
<path d="M166.358 291.332C166.358 291.332 162.309 262.512 151.469 244.921C149.33 241.367 147.791 237.484 146.914 233.428C143.291 217.473 148.456 200.788 160.16 189.369L177.26 172.685" stroke="#535461" stroke-width="2" stroke-miterlimit="10"/>
<path opacity="0.1" d="M181.372 291.332C181.372 291.332 197.445 279.355 177.26 237.436C177.26 237.436 150.348 204.125 177.26 172.685C177.26 172.685 118.576 174.182 119.697 228.827C120.818 283.472 149.039 291.332 149.039 291.332H181.372Z" fill="black"/>
<path d="M325.445 291.002C325.445 291.002 270.445 278.69 340.426 206.644C340.426 206.644 370.592 235.272 359.525 270.859C355.076 285.168 340.762 294.002 326.265 291.171C325.994 291.118 325.72 291.062 325.445 291.002Z" fill="#3D9E67"/>
<path opacity="0.4" d="M325.445 291.002C324.237 290.732 271.629 277.471 340.426 206.644C340.426 206.644 370.592 235.272 359.525 270.859C355.076 285.168 340.762 294.002 326.265 291.171C325.994 291.118 325.72 291.062 325.445 291.002Z" fill="white"/>
<path d="M326.167 291.412C326.167 291.412 355.218 247.589 340.426 206.644" stroke="#535461" stroke-miterlimit="10"/>
<path d="M97.8075 291.002C97.8075 291.002 42.8069 278.69 112.788 206.644C112.788 206.644 142.954 235.272 131.888 270.859C127.438 285.168 113.124 294.002 98.6272 291.171C98.3558 291.118 98.0826 291.062 97.8075 291.002Z" fill="#3D9E67"/>
<path opacity="0.4" d="M97.8075 291.002C96.5998 290.732 43.9913 277.471 112.788 206.644C112.788 206.644 142.954 235.272 131.888 270.859C127.438 285.168 113.124 294.002 98.6272 291.171C98.3558 291.118 98.0826 291.062 97.8075 291.002Z" fill="white"/>
<path d="M98.5296 291.412C98.5296 291.412 127.58 247.589 112.788 206.644" stroke="#535461" stroke-miterlimit="10"/>
<path d="M220.784 291.002C220.784 291.002 165.784 278.69 235.765 206.644C235.765 206.644 265.931 235.272 254.864 270.859C250.415 285.168 236.101 294.002 221.604 291.171C221.333 291.118 221.059 291.062 220.784 291.002Z" fill="#3D9E67"/>
<path opacity="0.4" d="M220.784 291.002C219.576 290.732 166.968 277.471 235.765 206.644C235.765 206.644 265.931 235.272 254.864 270.859C250.415 285.168 236.101 294.002 221.604 291.171C221.333 291.118 221.059 291.062 220.784 291.002Z" fill="white"/>
<path d="M221.506 291.412C221.506 291.412 250.557 247.589 235.765 206.644" stroke="#535461" stroke-miterlimit="10"/>
<path d="M389.737 291.002C389.737 291.002 334.736 278.69 404.717 206.644C404.717 206.644 434.884 235.272 423.817 270.859C419.368 285.168 405.054 294.002 390.557 291.171C390.285 291.118 390.012 291.062 389.737 291.002Z" fill="#3D9E67"/>
<path opacity="0.4" d="M389.737 291.002C388.529 290.732 335.921 277.471 404.717 206.644C404.717 206.644 434.884 235.272 423.817 270.859C419.368 285.168 405.054 294.002 390.557 291.171C390.285 291.118 390.012 291.062 389.737 291.002Z" fill="white"/>
<path d="M390.459 291.412C390.459 291.412 419.51 247.589 404.717 206.644" stroke="#535461" stroke-miterlimit="10"/>
<path d="M287.319 291.002C287.319 291.002 232.318 278.69 302.299 206.644C302.299 206.644 332.466 235.272 321.399 270.859C316.949 285.168 302.636 294.002 288.138 291.171C287.867 291.118 287.594 291.062 287.319 291.002Z" fill="#3D9E67"/>
<path opacity="0.4" d="M287.319 291.002C286.111 290.732 233.503 277.471 302.299 206.644C302.299 206.644 332.466 235.272 321.399 270.859C316.949 285.168 302.636 294.002 288.138 291.171C287.867 291.118 287.594 291.062 287.319 291.002Z" fill="white"/>
<path d="M288.041 291.412C288.041 291.412 317.091 247.589 302.299 206.644" stroke="#535461" stroke-miterlimit="10"/>
<path d="M95.9657 286.699C97.5892 285.466 99.1122 284.012 99.58 282.243C99.8212 281.306 99.6935 280.313 99.2233 279.468C98.7532 278.623 97.9767 277.991 97.0544 277.704C94.7349 276.979 92.2562 278.293 90.377 279.619C88.4977 280.945 86.344 282.459 83.8845 282.179C86.4326 280.336 87.6438 277.341 86.9413 274.621C86.8214 274.035 86.5247 273.499 86.0912 273.087C84.8036 271.962 82.4693 272.445 80.9276 273.331C76.0246 276.148 74.6565 281.589 74.6299 286.486C74.1354 284.72 74.5519 282.879 74.5397 281.067C74.5275 279.255 73.9196 277.246 72.0486 276.273C70.9377 275.695 69.5654 275.583 68.2493 275.544C66.0453 275.477 63.5906 275.658 62.0855 276.975C60.2153 278.611 60.7004 281.356 62.3273 283.158C63.9543 284.959 66.4291 286.088 68.707 287.332C70.4431 288.28 72.1989 289.388 73.2662 290.885C73.4021 291.083 73.5155 291.296 73.6042 291.519H87.421C90.4572 290.272 93.3273 288.653 95.9657 286.699Z" fill="#3D9E67"/>
<path d="M327.341 286.699C328.965 285.466 330.488 284.012 330.956 282.243C331.197 281.306 331.069 280.313 330.599 279.468C330.129 278.623 329.352 277.991 328.43 277.704C326.111 276.979 323.632 278.293 321.753 279.619C319.873 280.945 317.72 282.459 315.26 282.179C317.808 280.336 319.019 277.341 318.317 274.621C318.197 274.035 317.9 273.499 317.467 273.087C316.179 271.962 313.845 272.445 312.303 273.331C307.4 276.148 306.032 281.589 306.005 286.486C305.511 284.72 305.927 282.879 305.915 281.067C305.903 279.255 305.295 277.246 303.424 276.273C302.313 275.695 300.941 275.583 299.625 275.544C297.421 275.477 294.966 275.658 293.461 276.975C291.591 278.611 292.076 281.356 293.703 283.158C295.33 284.959 297.805 286.088 300.083 287.332C301.819 288.28 303.574 289.388 304.642 290.885C304.778 291.083 304.891 291.296 304.98 291.519H318.797C321.833 290.272 324.703 288.653 327.341 286.699Z" fill="#3D9E67"/>
<path d="M253.004 259.764C265.088 282.204 290.735 291.837 290.735 291.837C290.735 291.837 296.789 265.088 284.705 242.648C272.621 220.208 246.975 210.575 246.975 210.575C246.975 210.575 240.92 237.324 253.004 259.764Z" fill="#3F3D56"/>
<path d="M261.31 252.382C283.127 265.524 291.529 291.63 291.529 291.63C291.529 291.63 264.56 296.426 242.743 283.283C220.926 270.141 212.524 244.035 212.524 244.035C212.524 244.035 239.493 239.239 261.31 252.382Z" fill="#3D9E67"/>
<path d="M182.732 259.764C194.816 282.204 220.463 291.837 220.463 291.837C220.463 291.837 226.517 265.088 214.433 242.648C202.349 220.208 176.702 210.575 176.702 210.575C176.702 210.575 170.648 237.324 182.732 259.764Z" fill="#3F3D56"/>
<path d="M191.038 252.382C212.854 265.524 221.257 291.63 221.257 291.63C221.257 291.63 194.287 296.426 172.47 283.283C150.654 270.141 142.252 244.035 142.252 244.035C142.252 244.035 169.221 239.239 191.038 252.382Z" fill="#3D9E67"/>
<path d="M110.873 183.929C89.9683 215.266 95.1572 255.476 95.1572 255.476C95.1572 255.476 134.24 244.877 155.145 213.539C176.05 182.202 170.861 141.992 170.861 141.992C170.861 141.992 131.778 152.591 110.873 183.929Z" fill="#3F3D56"/>
<path d="M126.253 189.68C124.212 227.311 95.9769 256.371 95.9769 256.371C95.9769 256.371 71.0507 224.42 73.0915 186.79C75.1323 149.16 103.367 120.1 103.367 120.1C103.367 120.1 128.293 152.05 126.253 189.68Z" fill="#FC6681"/>
<path d="M408.476 232.377C409.263 275.051 384.201 290.418 352.95 290.996C352.225 291.009 351.502 291.014 350.783 291.011C349.334 291.007 347.899 290.967 346.479 290.893C318.238 289.414 296.034 274.156 295.302 234.469C294.545 193.398 346.012 140.598 349.873 136.693C349.876 136.693 349.876 136.693 349.879 136.69C350.026 136.541 350.101 136.466 350.101 136.466C350.101 136.466 407.689 189.706 408.476 232.377Z" fill="#3D9E67"/>
<path d="M350.771 284.506L370.933 255.169L350.777 287.686L350.783 291.012C349.334 291.007 347.899 290.968 346.479 290.893L347.922 248.16L347.899 247.83L347.936 247.767L348.073 243.729L326.679 211.9L348.08 240.705L348.148 241.56L349.237 209.274L330.817 176.315L349.352 203.601L349.873 136.693L349.875 136.471L349.879 136.69L350.56 189.434L367.898 168.198L350.568 193.977L350.631 222.868L366.676 194.845L350.644 227.115L350.679 243.18L373.995 204.154L350.689 248.784L350.771 284.506Z" fill="#3F3D56"/>
<path d="M320.635 232.377C321.422 275.051 296.361 290.418 265.11 290.996C264.384 291.009 263.662 291.014 262.942 291.011C261.493 291.007 260.059 290.967 258.639 290.893C230.397 289.414 208.193 274.156 207.461 234.469C206.704 193.398 258.171 140.598 262.032 136.693C262.036 136.693 262.036 136.693 262.039 136.69C262.186 136.541 262.261 136.466 262.261 136.466C262.261 136.466 319.849 189.706 320.635 232.377Z" fill="#3D9E67"/>
<path d="M262.93 284.506L283.092 255.169L262.937 287.686L262.942 291.012C261.493 291.007 260.059 290.968 258.639 290.893L260.082 248.16L260.058 247.83L260.095 247.767L260.233 243.729L238.838 211.9L260.239 240.705L260.307 241.56L261.397 209.274L242.977 176.315L261.511 203.601L262.032 136.693L262.035 136.471L262.039 136.69L262.72 189.434L280.057 168.198L262.727 193.977L262.791 222.868L278.836 194.845L262.803 227.115L262.839 243.18L286.154 204.154L262.848 248.784L262.93 284.506Z" fill="#3F3D56"/>
<path d="M425.67 233.126C426.457 275.8 401.396 291.166 370.145 291.744C369.419 291.758 368.696 291.763 367.977 291.76C366.528 291.755 365.094 291.716 363.674 291.641C335.432 290.163 313.228 274.905 312.496 235.218C311.739 194.147 363.206 141.347 367.067 137.442C367.07 137.442 367.07 137.442 367.074 137.438C367.22 137.289 367.296 137.215 367.296 137.215C367.296 137.215 424.884 190.455 425.67 233.126Z" fill="#3F3D56"/>
<path d="M367.965 285.255L388.127 255.917L367.971 288.434L367.977 291.76C366.528 291.755 365.094 291.716 363.674 291.641L365.116 248.908L365.093 248.578L365.13 248.515L365.267 244.477L343.873 212.648L365.274 241.454L365.342 242.308L366.432 210.022L348.011 177.063L366.546 204.349L367.067 137.442L367.07 137.219L367.074 137.438L367.755 190.182L385.092 168.947L367.762 194.725L367.825 223.616L383.871 195.593L367.838 227.863L367.873 243.928L391.189 204.903L367.883 249.532L367.965 285.255Z" fill="#FC6681"/>
<path d="M113.182 232.377C113.969 275.052 88.9078 290.418 57.6569 290.996C56.931 291.009 56.2085 291.015 55.4893 291.012C54.0404 291.007 52.6059 290.968 51.1859 290.893C22.944 289.415 0.740038 274.157 0.00827451 234.47C-0.749023 193.398 50.7182 140.598 54.579 136.693C54.5825 136.693 54.5825 136.693 54.5859 136.69C54.7326 136.541 54.8077 136.467 54.8077 136.467C54.8077 136.467 112.396 189.707 113.182 232.377Z" fill="#3D9E67"/>
<path d="M55.477 284.506L75.6393 255.169L55.4835 287.686L55.4893 291.012C54.0404 291.007 52.6059 290.968 51.1859 290.893L52.6285 248.16L52.605 247.83L52.642 247.767L52.7795 243.729L31.3852 211.9L52.7863 240.705L52.8542 241.56L53.9439 209.274L35.5236 176.315L54.0582 203.601L54.579 136.693L54.5819 136.471L54.5859 136.69L55.2666 189.434L72.6043 168.198L55.2739 193.977L55.3376 222.868L71.3828 194.845L55.3499 227.115L55.3856 243.18L78.701 204.154L55.3951 248.784L55.477 284.506Z" fill="#3F3D56"/>
<path d="M343.179 297.503C329.729 295.221 316.794 293.262 304.374 291.624L309.284 282.092C307.628 281.517 300.354 286.975 300.354 286.975L306.798 259.306C298.471 260.312 294.237 288.564 294.237 288.564L284.934 279.012L289.438 289.75C251.426 285.268 218.597 283.606 190.985 283.546L195.187 275.388C193.531 274.812 186.257 280.271 186.257 280.271L192.701 252.601C184.374 253.607 180.141 281.859 180.141 281.859L170.837 272.307L175.608 283.681C152.459 284.145 133.582 285.727 119.011 287.531C123.261 274.821 137.701 262.734 137.701 262.734C126.674 266.018 120.889 271.521 117.867 276.651C117.597 250.427 121.951 224.361 130.731 199.653C130.731 199.653 107.938 249.318 110.846 282.654L111.194 288.574C91.8709 291.344 82.1561 294.227 82.1561 294.227L343.179 297.503Z" fill="#3F3D56"/>
<path d="M386.912 295.257C373.462 292.975 360.527 291.016 348.107 289.379L353.017 279.847C351.362 279.271 344.088 284.73 344.088 284.73L350.531 257.06C342.204 258.066 337.971 286.318 337.971 286.318L328.668 276.766L333.172 287.505C295.159 283.022 262.331 281.36 234.718 281.3L238.92 273.142C237.265 272.566 229.991 278.025 229.991 278.025L236.434 250.356C228.107 251.361 223.874 279.613 223.874 279.613L214.571 270.061L219.341 281.435C196.192 281.899 177.315 283.481 162.744 285.285C166.995 272.575 181.434 260.488 181.434 260.488C170.407 263.772 164.623 269.275 161.6 274.405C161.33 248.181 165.685 222.116 174.464 197.407C174.464 197.407 151.671 247.072 154.579 280.408L154.927 286.328C135.604 289.098 125.889 291.981 125.889 291.981L386.912 295.257Z" fill="#3F3D56"/>
<path d="M437 299C423.55 296.718 410.615 294.759 398.195 293.122L403.105 283.589C401.449 283.014 394.175 288.472 394.175 288.472L400.619 260.803C392.292 261.809 388.059 290.061 388.059 290.061L378.755 280.509L383.259 291.248C345.247 286.765 312.418 285.103 284.806 285.043L289.008 276.885C287.352 276.309 280.079 281.768 280.079 281.768L286.522 254.099C278.195 255.104 273.962 283.356 273.962 283.356L264.659 273.804L269.429 285.178C246.28 285.642 227.403 287.224 212.832 289.028C217.083 276.318 231.522 264.231 231.522 264.231C220.495 267.515 214.71 273.018 211.688 278.148C211.418 251.924 215.772 225.858 224.552 201.15C224.552 201.15 201.759 250.815 204.667 284.151L205.015 290.071C185.692 292.841 175.977 295.724 175.977 295.724L437 299Z" fill="#3F3D56"/>
<path d="M271.411 295.257C257.961 292.975 245.026 291.016 232.606 289.379L237.516 279.847C235.861 279.271 228.587 284.73 228.587 284.73L235.03 257.06C226.703 258.066 222.47 286.318 222.47 286.318L213.167 276.766L217.671 287.505C179.658 283.022 146.83 281.36 119.217 281.3L123.419 273.142C121.764 272.566 114.49 278.025 114.49 278.025L120.933 250.356C112.607 251.361 108.373 279.613 108.373 279.613L99.0698 270.061L103.84 281.435C80.6915 281.899 61.814 283.481 47.2434 285.285C51.4939 272.575 65.9332 260.488 65.9332 260.488C54.906 263.772 49.1217 269.275 46.0992 274.405C45.8291 248.181 50.1838 222.116 58.963 197.407C58.963 197.407 36.1702 247.072 39.0786 280.408L39.4264 286.328C20.1033 289.098 10.3885 291.981 10.3885 291.981L271.411 295.257Z" fill="#3F3D56"/>
</g>
<defs>
<clipPath id="clip0">
<rect width="437" height="299" fill="white"/>
</clipPath>
</defs>
</svg>
